<?xml version="1.0" encoding="UTF-8" standalone="no"?>
<!-- Uploaded to: SVG Repo, www.svgrepo.com, Generator: SVG Repo Mixer Tools -->

<svg
   width="800px"
   height="800px"
   viewBox="0 -1 12 12"
   id="meteor-icon-kit__regular-bars-s"
   fill="none"
   version="1.1"
   sodipodi:docname="bars.svg"
   inkscape:version="1.3.2 (091e20e, 2023-11-25, custom)"
   xmlns:inkscape="http://www.inkscape.org/namespaces/inkscape"
   xmlns:sodipodi="http://sodipodi.sourceforge.net/DTD/sodipodi-0.dtd"
   xmlns="http://www.w3.org/2000/svg"
   xmlns:svg="http://www.w3.org/2000/svg">
  <defs
     id="defs1" />
  <sodipodi:namedview
     id="namedview1"
     pagecolor="#505050"
     bordercolor="#eeeeee"
     borderopacity="1"
     inkscape:showpageshadow="0"
     inkscape:pageopacity="0"
     inkscape:pagecheckerboard="0"
     inkscape:deskcolor="#d1d1d1"
     inkscape:zoom="0.295"
     inkscape:cx="400"
     inkscape:cy="394.91525"
     inkscape:window-width="1366"
     inkscape:window-height="705"
     inkscape:window-x="-8"
     inkscape:window-y="-8"
     inkscape:window-maximized="1"
     inkscape:current-layer="meteor-icon-kit__regular-bars-s" />
  <path
     fill-rule="evenodd"
     clip-rule="evenodd"
     d="M0.85714 2C0.38376 2 0 1.55228 0 1C0 0.44772 0.38376 0 0.85714 0H11.1429C11.6162 0 12 0.44772 12 1C12 1.55228 11.6162 2 11.1429 2H0.85714zM0.85714 6C0.38376 6 0 5.5523 0 5C0 4.4477 0.38376 4 0.85714 4H11.1429C11.6162 4 12 4.4477 12 5C12 5.5523 11.6162 6 11.1429 6H0.85714zM0.85714 10C0.38376 10 0 9.5523 0 9C0 8.4477 0.38376 8 0.85714 8H11.1429C11.6162 8 12 8.4477 12 9C12 9.5523 11.6162 10 11.1429 10H0.85714z"
     fill="#758CA3"
     id="path1"
     style="fill:#ced4da;fill-opacity:1" />
</svg>
