<?xml version="1.0" encoding="UTF-8" standalone="no"?>
<!-- Uploaded to: SVG Repo, www.svgrepo.com, Generator: SVG Repo Mixer Tools -->

<svg
   width="800px"
   height="800px"
   viewBox="0 0 24 24"
   fill="none"
   version="1.1"
   id="svg4"
   sodipodi:docname="category_news videos.svg"
   inkscape:version="1.3.2 (091e20e, 2023-11-25, custom)"
   xmlns:inkscape="http://www.inkscape.org/namespaces/inkscape"
   xmlns:sodipodi="http://sodipodi.sourceforge.net/DTD/sodipodi-0.dtd"
   xmlns="http://www.w3.org/2000/svg"
   xmlns:svg="http://www.w3.org/2000/svg">
  <sodipodi:namedview
     id="namedview4"
     pagecolor="#505050"
     bordercolor="#eeeeee"
     borderopacity="1"
     inkscape:showpageshadow="0"
     inkscape:pageopacity="0"
     inkscape:pagecheckerboard="0"
     inkscape:deskcolor="#d1d1d1"
     inkscape:zoom="0.304375"
     inkscape:cx="542.09446"
     inkscape:cy="517.4538"
     inkscape:window-width="1366"
     inkscape:window-height="705"
     inkscape:window-x="-8"
     inkscape:window-y="-8"
     inkscape:window-maximized="1"
     inkscape:current-layer="svg4" />
  <defs
     id="defs4">
    <clipPath
       id="clip0_429_11031">
      <rect
         width="24"
         height="24"
         fill="white"
         id="rect4" />
    </clipPath>
  </defs>
  <path
     d="m 15.993273,9.9999998 2.5768,-1.54608 c 0.7931,-0.47589 1.1897,-0.71383 1.516,-0.68341 0.2845,0.02652 0.5441,0.17349 0.7132,0.40382 0.194,0.26415 0.194,0.72662 0.194,1.65157 V 14.1741 c 0,0.9249 0,1.3874 -0.194,1.6516 -0.1691,0.2303 -0.4287,0.3773 -0.7132,0.4038 -0.3263,0.0304 -0.7229,-0.2075 -1.516,-0.6834 L 15.993273,14 m -9.8,4 h 6.6 c 1.1201,0 1.6802,0 2.108,-0.218 0.3763,-0.1917 0.6823,-0.4977 0.874,-0.874 0.218,-0.4278 0.218,-0.9879 0.218,-2.108 V 9.1999998 c 0,-1.1201 0,-1.68016 -0.218,-2.10798 -0.1917,-0.37633 -0.4977,-0.68229 -0.874,-0.87403 -0.4278,-0.21799 -0.9879,-0.21799 -2.108,-0.21799 h -6.6 c -1.1201,0 -1.68016,0 -2.10798,0.21799 -0.37633,0.19174 -0.68229,0.4977 -0.87403,0.87403 -0.21799,0.42782 -0.21799,0.98787 -0.21799,2.10798 V 14.8 c 0,1.1201 0,1.6802 0.21799,2.108 0.19174,0.3763 0.4977,0.6823 0.87403,0.874 C 4.513113,18 5.073163,18 6.193273,18 Z"
     stroke="#000000"
     stroke-width="2"
     stroke-linecap="round"
     stroke-linejoin="round"
     id="path1-0"
     style="stroke:#c2c7d0;stroke-opacity:1" />
</svg>
