<?xml version="1.0" encoding="UTF-8" standalone="no"?>
<!-- Uploaded to: SVG Repo, www.svgrepo.com, Generator: SVG Repo Mixer Tools -->

<svg
   width="800px"
   height="800px"
   viewBox="0 0 24 24"
   fill="none"
   version="1.1"
   id="svg4"
   sodipodi:docname="category_podcast.svg"
   inkscape:version="1.3.2 (091e20e, 2023-11-25, custom)"
   xmlns:inkscape="http://www.inkscape.org/namespaces/inkscape"
   xmlns:sodipodi="http://sodipodi.sourceforge.net/DTD/sodipodi-0.dtd"
   xmlns="http://www.w3.org/2000/svg"
   xmlns:svg="http://www.w3.org/2000/svg">
  <sodipodi:namedview
     id="namedview4"
     pagecolor="#505050"
     bordercolor="#eeeeee"
     borderopacity="1"
     inkscape:showpageshadow="0"
     inkscape:pageopacity="0"
     inkscape:pagecheckerboard="0"
     inkscape:deskcolor="#d1d1d1"
     inkscape:zoom="0.21522563"
     inkscape:cx="315.9475"
     inkscape:cy="555.23127"
     inkscape:window-width="1366"
     inkscape:window-height="705"
     inkscape:window-x="-8"
     inkscape:window-y="-8"
     inkscape:window-maximized="1"
     inkscape:current-layer="svg4" />
  <defs
     id="defs4">
    <clipPath
       id="clip0_429_11031">
      <rect
         width="24"
         height="24"
         fill="white"
         id="rect4" />
    </clipPath>
  </defs>
  <path
     d="m 12.000001,14.54378 a 4.4632827,4.2447213 0 0 0 4.457933,-4.239633 V 6.9124397 a 4.4579333,4.2396339 0 0 0 -8.9158666,0 V 10.304147 A 4.4632827,4.2447213 0 0 0 12.000001,14.54378 Z M 9.3252405,6.9124397 a 2.6747603,2.5437805 0 0 1 5.3495205,0 v 3.3917073 a 2.6747603,2.5437806 0 0 1 -5.3495205,0 z M 3.9757204,10.304147 V 8.6082933 a 0.8915866,0.84792675 0 0 1 1.7831731,0 v 1.6958537 a 6.2411066,5.9354874 0 0 0 12.4822125,0 V 8.6082933 a 0.891587,0.84792713 0 0 1 1.783174,0 v 1.6958537 a 8.0340874,7.640668 0 0 1 -7.132693,7.581313 v 1.745881 h 2.67476 a 0.8915866,0.84792675 0 0 1 0,1.695853 H 8.4336536 a 0.8915866,0.84792675 0 0 1 0,-1.695853 H 11.108414 V 17.88546 A 8.0340874,7.640668 0 0 1 3.9757204,10.304147 Z"
     id="path1-2"
     style="fill:#c2c7d0;fill-opacity:1;stroke-width:0.869482" />
</svg>
